<?xml version="1.0" standalone="no"?>
<!DOCTYPE svg PUBLIC "-//W3C//DTD SVG 20010904//EN"
 "http://www.w3.org/TR/2001/REC-SVG-20010904/DTD/svg10.dtd">
<svg version="1.0" xmlns="http://www.w3.org/2000/svg"
 width="1280.000000pt" height="640.000000pt" viewBox="0 0 1280.000000 640.000000"
 preserveAspectRatio="xMidYMid meet">
<metadata>
Created by potrace 1.15, written by Peter Selinger 2001-2017
</metadata>
<g transform="translate(0.000000,640.000000) scale(0.100000,-0.100000)"
fill="#000000" stroke="none">
<path d="M6584 5268 c1 -425 -3 -674 -12 -783 -7 -87 -14 -160 -15 -161 -1 0
-168 -8 -372 -18 -338 -15 -1703 -76 -3209 -144 l-598 -27 -167 133 c-91 74
-170 137 -175 142 -4 4 -18 79 -30 167 l-22 158 -110 12 c-60 6 -128 12 -151
12 -40 1 -43 -1 -43 -25 0 -19 -4 -25 -15 -20 -8 3 -253 196 -543 429 l-528
424 -247 -25 c-136 -15 -247 -29 -247 -33 0 -3 200 -341 445 -750 l445 -744
-42 -7 c-24 -3 -79 -12 -123 -18 -97 -15 -182 -45 -195 -70 -6 -10 -10 -49
-10 -87 1 -115 43 -178 153 -228 31 -15 57 -28 57 -29 0 -2 -184 -119 -410
-262 -367 -232 -440 -284 -397 -284 47 0 480 52 499 60 13 5 205 82 428 170
l404 161 136 -35 c195 -51 937 -218 1240 -280 90 -18 380 -39 910 -66 499 -26
1111 -58 1215 -65 44 -3 152 -10 240 -16 88 -5 225 -19 305 -29 80 -11 163
-21 184 -22 l39 -3 -97 -125 c-256 -329 -117 -212 -1471 -1232 -665 -501
-1218 -918 -1228 -928 -17 -16 -17 -17 4 -44 46 -59 162 -83 264 -55 107 29
721 373 2080 1164 l520 303 185 -34 c416 -77 533 -94 775 -113 173 -14 566
-25 608 -17 45 8 93 55 119 115 49 114 63 293 32 401 -20 68 -77 146 -127 171
-81 42 -275 35 -616 -21 -101 -17 -186 -29 -187 -27 -2 2 141 101 319 219
l322 215 145 6 c195 7 447 58 858 172 86 23 638 46 1907 80 1621 42 1531 36
1903 125 401 97 690 199 795 282 70 56 80 108 46 244 -23 92 -122 166 -324
245 -71 28 -144 66 -205 108 -220 150 -260 173 -380 218 -145 55 -408 91 -863
119 -268 16 -288 16 -749 -5 -2075 -95 -2673 -120 -2679 -114 -4 5 -112 283
-239 618 -127 336 -249 658 -271 716 l-41 106 -211 37 c-117 20 -217 36 -223
36 -7 0 -10 -189 -10 -622z m651 -3378 c27 -28 29 -28 56 -14 16 8 29 12 29
10 0 -3 -13 -12 -30 -21 -22 -12 -60 -15 -167 -13 l-138 2 133 3 c84 2 131 7
127 13 -4 6 -11 8 -16 5 -5 -4 -12 2 -16 12 -4 10 -11 21 -17 25 -8 5 -8 8 0
8 5 0 23 -13 39 -30z m-645 -4 c8 -2 -13 -4 -47 -5 -35 0 -63 2 -63 7 0 7 76
5 110 -2z m93 -13 c-13 -2 -35 -2 -50 0 -16 2 -5 4 22 4 28 0 40 -2 28 -4z
m165 -10 c-21 -2 -57 -2 -80 0 -24 2 -7 4 37 4 44 0 63 -2 43 -4z"/>
</g>
</svg>
