<svg xmlns="http://www.w3.org/2000/svg" xmlns:xlink="http://www.w3.org/1999/xlink" version="1.1" x="0px" y="0px" viewBox="0 0 64 80" enable-background="new 0 0 64 64" xml:space="preserve">
    <path
        d="M54.706,32.762l-2.848-10.248l9.003-9.003c2.367-2.367,4.725-9.105,1.729-12.101c-2.995-2.997-9.733-0.639-12.101,1.729  l-9.002,9.003L31.238,9.294c0.68-2.137,0.163-4.501-1.492-6.156c-2.382-2.383-6.26-2.383-8.643,0l-2.615,2.615l-8.117-2.254  L5.309,8.56l8.599,5.231l-2.313,2.313c-0.478,0.478-0.478,1.251,0,1.729s1.251,0.478,1.729,0l2.733-2.733l2.15,1.307l-1.425,1.426  c-0.478,0.478-0.478,1.251,0,1.729c0.477,0.478,1.251,0.478,1.729,0l1.847-1.847l9.673,5.885l-9.368,9.368l-13.83-1.729  l-6.473,6.474c-0.478,0.478-0.478,1.251,0,1.729s1.251,0.478,1.729,0l2.819-2.819l10.213,5.405  c-0.403,0.972-0.725,1.852-0.975,2.643l-3.414,3.415c-0.061,0.061-5.448,6.652-3.458,8.643c2.154,2.154,8.583-3.396,8.644-3.457  l2.772-2.771c1.207-0.277,2.454-0.74,3.503-1.21l5.188,9.806l-2.82,2.819c-0.478,0.478-0.478,1.251,0,1.729  c0.478,0.478,1.251,0.478,1.729,0l6.474-6.474l-1.729-13.829l9.368-9.368l5.885,9.673l-1.847,1.847  c-0.478,0.479-0.478,1.251,0,1.729c0.478,0.478,1.251,0.478,1.729,0l1.426-1.427l1.308,2.15l-2.733,2.733  c-0.478,0.478-0.478,1.251,0,1.729s1.251,0.478,1.729,0l2.313-2.313l5.23,8.599l5.062-5.062l-2.255-8.117l2.614-2.615  c2.383-2.383,2.383-6.26,0-8.644C59.207,32.601,56.843,32.082,54.706,32.762z M22.832,4.867c1.43-1.43,3.756-1.43,5.186,0  c0.995,0.995,1.313,2.477,0.878,3.776l-3.9-1.083l-3.8-1.058L22.832,4.867z M9.238,8.089l1.853-1.853l5.411,1.503l-0.003,0.003  l13.594,3.774l0.002-0.002l9.406,2.613l-7.692,7.692L9.238,8.089z M6.715,34.813l1-0.999l10.932,1.365  c-0.017,0.026-0.038,0.063-0.057,0.09c-0.177,0.265-0.36,0.554-0.552,0.874c-0.002,0.003-0.005,0.008-0.007,0.013  c-0.191,0.321-0.389,0.671-0.587,1.031c-0.058,0.105-0.115,0.214-0.174,0.322c-0.146,0.271-0.29,0.543-0.434,0.825  c-0.063,0.12-0.123,0.238-0.184,0.361c-0.149,0.295-0.293,0.589-0.435,0.884c-0.034,0.069-0.07,0.14-0.103,0.209L6.715,34.813z   M14.188,51.541c-0.786,0.785-3.23,2.385-4.668,3.007c0.661-1.43,2.255-3.857,2.94-4.735l9.303-9.304l2.593-0.864l-0.864,2.593  L14.188,51.541z M29.188,57.285l-4.801-9.076c0.051-0.027,0.101-0.057,0.152-0.084c0.318-0.172,0.632-0.347,0.942-0.524  c0.113-0.064,0.223-0.129,0.334-0.194c0.274-0.161,0.54-0.322,0.802-0.484c0.098-0.063,0.196-0.121,0.292-0.184  c0.688-0.436,1.312-0.863,1.832-1.26c0.027-0.021,0.061-0.045,0.087-0.064l1.359,10.872L29.188,57.285z M28.018,42.897  c-0.094,0.095-0.214,0.202-0.353,0.317c-0.046,0.037-0.104,0.081-0.154,0.122c-0.1,0.082-0.205,0.164-0.323,0.254  c-0.068,0.052-0.146,0.106-0.219,0.159c-0.118,0.087-0.239,0.173-0.37,0.264c-0.085,0.06-0.175,0.12-0.265,0.18  c-0.134,0.093-0.272,0.185-0.417,0.278c-0.098,0.064-0.199,0.129-0.303,0.194c-0.149,0.096-0.303,0.191-0.461,0.287  c-0.108,0.066-0.218,0.134-0.329,0.2c-0.167,0.101-0.338,0.199-0.51,0.3c-0.112,0.063-0.222,0.128-0.334,0.189  c-0.196,0.112-0.398,0.222-0.6,0.33c-0.094,0.051-0.187,0.103-0.282,0.152c-0.026,0.015-0.051,0.025-0.077,0.04l2.607-2.607  l1.729-5.186l3.739-3.74c0.478-0.478,0.478-1.251,0-1.729c-0.477-0.478-1.251-0.478-1.729,0l-3.739,3.74l-5.186,1.729l-1.791,1.791  c0.033-0.067,0.065-0.137,0.099-0.203c0.048-0.096,0.095-0.188,0.142-0.282c0.108-0.212,0.214-0.418,0.32-0.618  c0.046-0.088,0.094-0.181,0.141-0.267c0.121-0.228,0.24-0.446,0.356-0.653c0.022-0.038,0.045-0.081,0.067-0.12  c0.134-0.238,0.263-0.458,0.385-0.662c0.038-0.064,0.075-0.122,0.111-0.183c0.083-0.135,0.163-0.264,0.238-0.381  c0.038-0.059,0.074-0.114,0.11-0.168c0.069-0.104,0.134-0.198,0.194-0.282c0.027-0.037,0.055-0.077,0.081-0.11  c0.079-0.105,0.15-0.195,0.207-0.25L52.219,4.867c1.63-1.631,6.922-3.451,8.643-1.729c1.723,1.722-0.098,7.013-1.729,8.644  L28.018,42.897z M55.911,54.763L42.18,32.192l7.692-7.693l2.614,9.407l-0.004,0.003l3.775,13.594l0.003-0.005l1.504,5.412  L55.911,54.763z M59.133,41.169l-1.635,1.636l-1.309-4.7l-0.833-2.998c1.299-0.437,2.781-0.12,3.776,0.877  C60.563,37.412,60.563,39.739,59.133,41.169z M59.661,8.927c-0.183-2.544-2.045-4.406-4.589-4.588  c-0.674-0.049-1.259,0.457-1.306,1.131c-0.05,0.673,0.457,1.26,1.13,1.307c1.374,0.1,2.228,0.952,2.326,2.327  c0.021,0.304,0.154,0.575,0.355,0.776c0.24,0.241,0.583,0.381,0.952,0.354C59.202,10.186,59.71,9.601,59.661,8.927z"
        fill="#f49d31"
    />
</svg>
